<svg width="24" height="33" viewBox="0 0 24 33" fill="none" xmlns="http://www.w3.org/2000/svg">
<g filter="url(#filter0_dd_121_53445)">
<circle cx="4.70626" cy="24.3533" r="0.646687" transform="rotate(-90 4.70626 24.3533)" fill="#3056D3"/>
<circle cx="10.3969" cy="24.3533" r="0.646687" transform="rotate(-90 10.3969 24.3533)" fill="#3056D3"/>
<circle cx="16.0881" cy="24.3533" r="0.646687" transform="rotate(-90 16.0881 24.3533)" fill="#3056D3"/>
<circle cx="21.7788" cy="24.3533" r="0.646687" transform="rotate(-90 21.7788 24.3533)" fill="#3056D3"/>
<circle cx="4.70626" cy="18.6624" r="0.646687" transform="rotate(-90 4.70626 18.6624)" fill="#3056D3"/>
<circle cx="10.3969" cy="18.6624" r="0.646687" transform="rotate(-90 10.3969 18.6624)" fill="#3056D3"/>
<circle cx="16.0881" cy="18.6624" r="0.646687" transform="rotate(-90 16.0881 18.6624)" fill="#3056D3"/>
<circle cx="21.7788" cy="18.6624" r="0.646687" transform="rotate(-90 21.7788 18.6624)" fill="#3056D3"/>
<circle cx="4.70626" cy="12.9715" r="0.646687" transform="rotate(-90 4.70626 12.9715)" fill="#3056D3"/>
<circle cx="10.3969" cy="12.9715" r="0.646687" transform="rotate(-90 10.3969 12.9715)" fill="#3056D3"/>
<circle cx="16.0881" cy="12.9715" r="0.646687" transform="rotate(-90 16.0881 12.9715)" fill="#3056D3"/>
<circle cx="21.7788" cy="12.9715" r="0.646687" transform="rotate(-90 21.7788 12.9715)" fill="#3056D3"/>
<circle cx="4.70626" cy="7.28056" r="0.646687" transform="rotate(-90 4.70626 7.28056)" fill="#3056D3"/>
<circle cx="10.3969" cy="7.28056" r="0.646687" transform="rotate(-90 10.3969 7.28056)" fill="#3056D3"/>
<circle cx="16.0881" cy="7.28056" r="0.646687" transform="rotate(-90 16.0881 7.28056)" fill="#3056D3"/>
<circle cx="21.7788" cy="7.28056" r="0.646687" transform="rotate(-90 21.7788 7.28056)" fill="#3056D3"/>
<circle cx="4.70626" cy="1.58964" r="0.646687" transform="rotate(-90 4.70626 1.58964)" fill="#3056D3"/>
<circle cx="10.3969" cy="1.58964" r="0.646687" transform="rotate(-90 10.3969 1.58964)" fill="#3056D3"/>
<circle cx="16.0881" cy="1.58964" r="0.646687" transform="rotate(-90 16.0881 1.58964)" fill="#3056D3"/>
<circle cx="21.7788" cy="1.58964" r="0.646687" transform="rotate(-90 21.7788 1.58964)" fill="#3056D3"/>
</g>
<defs>
<filter id="filter0_dd_121_53445" x="0.0595703" y="-16" width="59.864" height="49" filterUnits="userSpaceOnUse" color-interpolation-filters="sRGB">
<feFlood flood-opacity="0" result="BackgroundImageFix"/>
<feColorMatrix in="SourceAlpha" type="matrix" values="0 0 0 0 0 0 0 0 0 0 0 0 0 0 0 0 0 0 127 0" result="hardAlpha"/>
<feOffset dy="4"/>
<feGaussianBlur stdDeviation="2"/>
<feComposite in2="hardAlpha" operator="out"/>
<feColorMatrix type="matrix" values="0 0 0 0 0 0 0 0 0 0 0 0 0 0 0 0 0 0 0.25 0"/>
<feBlend mode="normal" in2="BackgroundImageFix" result="effect1_dropShadow_121_53445"/>
<feColorMatrix in="SourceAlpha" type="matrix" values="0 0 0 0 0 0 0 0 0 0 0 0 0 0 0 0 0 0 127 0" result="hardAlpha"/>
<feOffset dy="4"/>
<feGaussianBlur stdDeviation="2"/>
<feComposite in2="hardAlpha" operator="out"/>
<feColorMatrix type="matrix" values="0 0 0 0 0 0 0 0 0 0 0 0 0 0 0 0 0 0 0.25 0"/>
<feBlend mode="normal" in2="effect1_dropShadow_121_53445" result="effect2_dropShadow_121_53445"/>
<feBlend mode="normal" in="SourceGraphic" in2="effect2_dropShadow_121_53445" result="shape"/>
</filter>
</defs>
</svg>
